<mxfile host="app.diagrams.net" modified="2022-02-18T19:54:28.679Z" agent="5.0 (Windows NT 10.0; Win64; x64) AppleWebKit/537.36 (KHTML, like Gecko) Chrome/98.0.4758.82 Safari/537.36" etag="10b6WbCanGLdFR60J5zK" version="16.5.6" type="github">
  <diagram id="z50vEX0yVuX6d4dubkKl" name="Page-1">
    <mxGraphModel dx="2966" dy="2732" grid="1" gridSize="10" guides="1" tooltips="1" connect="1" arrows="1" fold="1" page="1" pageScale="1" pageWidth="827" pageHeight="1169" math="0" shadow="0">
      <root>
        <mxCell id="0" />
        <mxCell id="1" parent="0" />
        <mxCell id="lQfmFTRjcM8leJoIF2UN-60" value="" style="rounded=0;whiteSpace=wrap;html=1;fillColor=#D4FCFF;" vertex="1" parent="1">
          <mxGeometry x="380" y="-180" width="1890" height="1340" as="geometry" />
        </mxCell>
        <mxCell id="lQfmFTRjcM8leJoIF2UN-1" value="" style="rounded=0;whiteSpace=wrap;html=1;fillColor=#95F5F5;strokeColor=#666666;fontColor=#333333;" vertex="1" parent="1">
          <mxGeometry x="750" width="298" height="1037" as="geometry" />
        </mxCell>
        <mxCell id="lQfmFTRjcM8leJoIF2UN-2" value="" style="rounded=0;whiteSpace=wrap;html=1;fillColor=#dae8fc;strokeColor=#6c8ebf;" vertex="1" parent="1">
          <mxGeometry x="1540" width="370" height="1037" as="geometry" />
        </mxCell>
        <mxCell id="lQfmFTRjcM8leJoIF2UN-3" value="" style="rounded=0;whiteSpace=wrap;html=1;fillColor=#C9F57D;strokeColor=#666666;fontColor=#333333;" vertex="1" parent="1">
          <mxGeometry x="420" width="330" height="1037" as="geometry" />
        </mxCell>
        <mxCell id="lQfmFTRjcM8leJoIF2UN-4" value="" style="rounded=0;whiteSpace=wrap;html=1;fillColor=#dae8fc;strokeColor=#6c8ebf;" vertex="1" parent="1">
          <mxGeometry x="1050" width="315" height="1036" as="geometry" />
        </mxCell>
        <mxCell id="lQfmFTRjcM8leJoIF2UN-5" value="" style="rounded=0;whiteSpace=wrap;html=1;fillColor=#d5e8d4;strokeColor=#82b366;" vertex="1" parent="1">
          <mxGeometry x="1367" width="171" height="1037" as="geometry" />
        </mxCell>
        <mxCell id="lQfmFTRjcM8leJoIF2UN-6" value="" style="endArrow=classic;html=1;rounded=0;fontColor=#FF142C;labelBackgroundColor=#FF142C;strokeColor=#FF3A24;strokeWidth=2;" edge="1" parent="1" source="lQfmFTRjcM8leJoIF2UN-42" target="lQfmFTRjcM8leJoIF2UN-8">
          <mxGeometry width="50" height="50" relative="1" as="geometry">
            <mxPoint x="1033.16" y="949.4699999999999" as="sourcePoint" />
            <mxPoint x="1113.1599999999999" y="942.1972727272727" as="targetPoint" />
          </mxGeometry>
        </mxCell>
        <mxCell id="lQfmFTRjcM8leJoIF2UN-7" value="&lt;font color=&quot;#000000&quot; style=&quot;font-size: 14px&quot;&gt;&lt;b&gt;Client&lt;/b&gt;&lt;/font&gt;" style="image;html=1;image=img/lib/clip_art/computers/Database_128x128.png;fontColor=#FF142C;" vertex="1" parent="1">
          <mxGeometry x="1399.9999999999998" y="468.53999999999996" width="80" height="80" as="geometry" />
        </mxCell>
        <mxCell id="lQfmFTRjcM8leJoIF2UN-8" value="&lt;font color=&quot;#000000&quot; style=&quot;font-size: 14px&quot;&gt;&lt;b&gt;Product&lt;/b&gt;&lt;/font&gt;" style="image;html=1;image=img/lib/clip_art/computers/Database_128x128.png;fontColor=#FF142C;" vertex="1" parent="1">
          <mxGeometry x="1400" y="338" width="80" height="80" as="geometry" />
        </mxCell>
        <mxCell id="lQfmFTRjcM8leJoIF2UN-9" value="&lt;font color=&quot;#000000&quot; size=&quot;1&quot;&gt;&lt;b style=&quot;font-size: 14px&quot;&gt;Movements&lt;/b&gt;&lt;/font&gt;" style="image;html=1;image=img/lib/clip_art/computers/Database_128x128.png;fontColor=#FF142C;" vertex="1" parent="1">
          <mxGeometry x="1409.9999999999998" y="788" width="80" height="80" as="geometry" />
        </mxCell>
        <mxCell id="lQfmFTRjcM8leJoIF2UN-10" style="edgeStyle=orthogonalEdgeStyle;rounded=0;orthogonalLoop=1;jettySize=auto;html=1;fontSize=14;fontColor=#000000;" edge="1" parent="1" source="lQfmFTRjcM8leJoIF2UN-43" target="lQfmFTRjcM8leJoIF2UN-13">
          <mxGeometry relative="1" as="geometry" />
        </mxCell>
        <mxCell id="lQfmFTRjcM8leJoIF2UN-11" value="&lt;font color=&quot;#000000&quot; style=&quot;font-size: 14px&quot;&gt;&lt;b&gt;Asignature&lt;/b&gt;&lt;/font&gt;" style="image;html=1;image=img/lib/clip_art/computers/Database_128x128.png;fontColor=#FF142C;" vertex="1" parent="1">
          <mxGeometry x="1399.9999999999998" y="628" width="80" height="80" as="geometry" />
        </mxCell>
        <mxCell id="lQfmFTRjcM8leJoIF2UN-12" style="edgeStyle=orthogonalEdgeStyle;rounded=0;orthogonalLoop=1;jettySize=auto;html=1;entryX=0.516;entryY=1.062;entryDx=0;entryDy=0;entryPerimeter=0;fontSize=14;fontColor=#000000;" edge="1" parent="1" source="lQfmFTRjcM8leJoIF2UN-13" target="lQfmFTRjcM8leJoIF2UN-37">
          <mxGeometry relative="1" as="geometry" />
        </mxCell>
        <mxCell id="lQfmFTRjcM8leJoIF2UN-13" value="&lt;font style=&quot;font-size: 14px&quot;&gt;&lt;b&gt;Asignature&lt;/b&gt;&lt;/font&gt;" style="aspect=fixed;html=1;points=[];align=center;image;fontSize=12;image=img/lib/azure2/ai_machine_learning/Cognitive_Services.svg;fontColor=#000000;" vertex="1" parent="1">
          <mxGeometry x="1142" y="614.92" width="109.17" height="77.06" as="geometry" />
        </mxCell>
        <mxCell id="lQfmFTRjcM8leJoIF2UN-14" value="" style="endArrow=classic;html=1;rounded=0;fontColor=#FF142C;labelBackgroundColor=#FF142C;strokeColor=#FF3A24;strokeWidth=2;" edge="1" parent="1" source="lQfmFTRjcM8leJoIF2UN-37" target="lQfmFTRjcM8leJoIF2UN-7">
          <mxGeometry width="50" height="50" relative="1" as="geometry">
            <mxPoint x="1359.9999999999995" y="498.5399999999999" as="sourcePoint" />
            <mxPoint x="1359.9999999999995" y="591.4799999999998" as="targetPoint" />
          </mxGeometry>
        </mxCell>
        <mxCell id="lQfmFTRjcM8leJoIF2UN-15" value="" style="endArrow=classic;html=1;rounded=0;fontColor=#FF142C;labelBackgroundColor=#FF142C;strokeColor=#FF3A24;strokeWidth=2;" edge="1" parent="1" source="lQfmFTRjcM8leJoIF2UN-13" target="lQfmFTRjcM8leJoIF2UN-11">
          <mxGeometry width="50" height="50" relative="1" as="geometry">
            <mxPoint x="1450.5699999999997" y="947.9999999999999" as="sourcePoint" />
            <mxPoint x="1450.5699999999997" y="1040.9399999999996" as="targetPoint" />
          </mxGeometry>
        </mxCell>
        <mxCell id="lQfmFTRjcM8leJoIF2UN-16" value="" style="endArrow=classic;html=1;rounded=0;fontColor=#FF142C;labelBackgroundColor=#FF142C;strokeColor=#FF3A24;strokeWidth=2;" edge="1" parent="1" source="lQfmFTRjcM8leJoIF2UN-43" target="lQfmFTRjcM8leJoIF2UN-9">
          <mxGeometry width="50" height="50" relative="1" as="geometry">
            <mxPoint x="1662.1600000000003" y="947.9999999999999" as="sourcePoint" />
            <mxPoint x="1662.1600000000003" y="1040.9399999999996" as="targetPoint" />
          </mxGeometry>
        </mxCell>
        <mxCell id="lQfmFTRjcM8leJoIF2UN-17" style="edgeStyle=orthogonalEdgeStyle;rounded=0;orthogonalLoop=1;jettySize=auto;html=1;entryX=0.24;entryY=0.76;entryDx=0;entryDy=0;entryPerimeter=0;fontSize=20;fontColor=#000000;strokeColor=#9933FF;strokeWidth=4;" edge="1" parent="1" source="lQfmFTRjcM8leJoIF2UN-20" target="lQfmFTRjcM8leJoIF2UN-40">
          <mxGeometry relative="1" as="geometry" />
        </mxCell>
        <mxCell id="lQfmFTRjcM8leJoIF2UN-18" style="edgeStyle=orthogonalEdgeStyle;rounded=0;orthogonalLoop=1;jettySize=auto;html=1;entryX=0.5;entryY=1;entryDx=0;entryDy=0;entryPerimeter=0;fontSize=20;fontColor=#000000;strokeColor=#9933FF;strokeWidth=4;" edge="1" parent="1" source="lQfmFTRjcM8leJoIF2UN-20" target="lQfmFTRjcM8leJoIF2UN-27">
          <mxGeometry relative="1" as="geometry">
            <Array as="points">
              <mxPoint x="899" y="1027" />
              <mxPoint x="1860" y="1027" />
              <mxPoint x="1860" y="498" />
            </Array>
          </mxGeometry>
        </mxCell>
        <mxCell id="lQfmFTRjcM8leJoIF2UN-19" style="edgeStyle=orthogonalEdgeStyle;rounded=0;orthogonalLoop=1;jettySize=auto;html=1;fontSize=20;fontColor=#000000;strokeColor=#9933FF;strokeWidth=4;" edge="1" parent="1" source="lQfmFTRjcM8leJoIF2UN-20" target="lQfmFTRjcM8leJoIF2UN-44">
          <mxGeometry relative="1" as="geometry" />
        </mxCell>
        <mxCell id="lQfmFTRjcM8leJoIF2UN-20" value="GitHub" style="dashed=0;outlineConnect=0;html=1;align=center;labelPosition=center;verticalLabelPosition=bottom;verticalAlign=top;shape=mxgraph.weblogos.github;fontSize=14;fontStyle=1;labelBackgroundColor=default;" vertex="1" parent="1">
          <mxGeometry x="861.5" y="912" width="75" height="75" as="geometry" />
        </mxCell>
        <mxCell id="lQfmFTRjcM8leJoIF2UN-21" style="edgeStyle=orthogonalEdgeStyle;rounded=0;orthogonalLoop=1;jettySize=auto;html=1;fontSize=20;fontColor=#000000;strokeColor=#99004D;strokeWidth=4;" edge="1" parent="1" source="lQfmFTRjcM8leJoIF2UN-22" target="lQfmFTRjcM8leJoIF2UN-44">
          <mxGeometry relative="1" as="geometry">
            <Array as="points">
              <mxPoint x="560" y="697" />
            </Array>
          </mxGeometry>
        </mxCell>
        <mxCell id="lQfmFTRjcM8leJoIF2UN-22" value="&lt;font style=&quot;font-size: 20px&quot;&gt;UI&lt;/font&gt;" style="aspect=fixed;perimeter=ellipsePerimeter;html=1;align=center;shadow=0;dashed=0;spacingTop=3;image;image=img/lib/active_directory/home_page.svg;fillColor=#95F5F5;fontSize=14;fontStyle=1" vertex="1" parent="1">
          <mxGeometry x="480" y="262.53" width="160" height="144" as="geometry" />
        </mxCell>
        <mxCell id="lQfmFTRjcM8leJoIF2UN-23" value="Microservicios" style="ellipse;whiteSpace=wrap;html=1;align=center;newEdgeStyle={&quot;edgeStyle&quot;:&quot;entityRelationEdgeStyle&quot;,&quot;startArrow&quot;:&quot;none&quot;,&quot;endArrow&quot;:&quot;none&quot;,&quot;segment&quot;:10,&quot;curved&quot;:1};treeFolding=1;treeMoving=1;fontSize=14;fillColor=#FFFFFF;fontStyle=1" vertex="1" collapsed="1" parent="1">
          <mxGeometry x="1230" y="887" width="110" height="50" as="geometry" />
        </mxCell>
        <mxCell id="lQfmFTRjcM8leJoIF2UN-24" style="edgeStyle=orthogonalEdgeStyle;rounded=0;orthogonalLoop=1;jettySize=auto;html=1;" edge="1" parent="1" source="lQfmFTRjcM8leJoIF2UN-27" target="lQfmFTRjcM8leJoIF2UN-41">
          <mxGeometry relative="1" as="geometry">
            <Array as="points">
              <mxPoint x="1773" y="403.54" />
            </Array>
          </mxGeometry>
        </mxCell>
        <mxCell id="lQfmFTRjcM8leJoIF2UN-25" style="edgeStyle=orthogonalEdgeStyle;rounded=0;orthogonalLoop=1;jettySize=auto;html=1;exitX=0.5;exitY=1;exitDx=0;exitDy=0;exitPerimeter=0;entryX=1.02;entryY=0.706;entryDx=0;entryDy=0;entryPerimeter=0;" edge="1" parent="1" source="lQfmFTRjcM8leJoIF2UN-27" target="lQfmFTRjcM8leJoIF2UN-35">
          <mxGeometry relative="1" as="geometry">
            <Array as="points">
              <mxPoint x="1773" y="617.54" />
            </Array>
          </mxGeometry>
        </mxCell>
        <mxCell id="lQfmFTRjcM8leJoIF2UN-26" style="edgeStyle=orthogonalEdgeStyle;rounded=0;orthogonalLoop=1;jettySize=auto;html=1;fontSize=14;fontColor=#000000;strokeColor=#000000;strokeWidth=1;" edge="1" parent="1" source="lQfmFTRjcM8leJoIF2UN-27" target="lQfmFTRjcM8leJoIF2UN-55">
          <mxGeometry relative="1" as="geometry">
            <Array as="points">
              <mxPoint x="1773" y="677" />
              <mxPoint x="1730" y="677" />
            </Array>
          </mxGeometry>
        </mxCell>
        <mxCell id="lQfmFTRjcM8leJoIF2UN-27" value="&lt;font style=&quot;font-size: 14px&quot;&gt;&lt;b&gt;RepositoryGit&lt;/b&gt;&lt;/font&gt;" style="verticalLabelPosition=bottom;html=1;verticalAlign=top;align=center;strokeColor=none;fillColor=#00BEF2;shape=mxgraph.azure.git_repository;labelBackgroundColor=default;" vertex="1" parent="1">
          <mxGeometry x="1748" y="447.5400000000001" width="50" height="50" as="geometry" />
        </mxCell>
        <mxCell id="lQfmFTRjcM8leJoIF2UN-28" value="" style="shape=image;verticalLabelPosition=bottom;labelBackgroundColor=default;verticalAlign=top;aspect=fixed;imageAspect=0;image=https://assets-global.website-files.com/5f1c75e63b2f950eb473d3e4/603c5eb831820c3ce6a8f057_603a1586fa052d17fc2a6929_MongoDBAtlas.png;" vertex="1" parent="1">
          <mxGeometry x="1420" y="904.5" width="90" height="90" as="geometry" />
        </mxCell>
        <mxCell id="lQfmFTRjcM8leJoIF2UN-29" style="edgeStyle=orthogonalEdgeStyle;rounded=0;orthogonalLoop=1;jettySize=auto;html=1;fontSize=14;fontColor=#000000;strokeColor=#9933FF;strokeWidth=4;" edge="1" parent="1" source="lQfmFTRjcM8leJoIF2UN-35" target="lQfmFTRjcM8leJoIF2UN-13">
          <mxGeometry relative="1" as="geometry">
            <Array as="points">
              <mxPoint x="1370" y="594" />
              <mxPoint x="1370" y="653" />
            </Array>
          </mxGeometry>
        </mxCell>
        <mxCell id="lQfmFTRjcM8leJoIF2UN-30" style="edgeStyle=orthogonalEdgeStyle;rounded=0;orthogonalLoop=1;jettySize=auto;html=1;entryX=0.898;entryY=0.895;entryDx=0;entryDy=0;entryPerimeter=0;fontSize=14;fontColor=#000000;strokeColor=#9933FF;strokeWidth=4;" edge="1" parent="1" source="lQfmFTRjcM8leJoIF2UN-35" target="lQfmFTRjcM8leJoIF2UN-37">
          <mxGeometry relative="1" as="geometry" />
        </mxCell>
        <mxCell id="lQfmFTRjcM8leJoIF2UN-31" style="edgeStyle=orthogonalEdgeStyle;rounded=0;orthogonalLoop=1;jettySize=auto;html=1;entryX=0.942;entryY=0.995;entryDx=0;entryDy=0;entryPerimeter=0;fontSize=14;fontColor=#000000;strokeColor=#9933FF;strokeWidth=4;" edge="1" parent="1" source="lQfmFTRjcM8leJoIF2UN-35" target="lQfmFTRjcM8leJoIF2UN-42">
          <mxGeometry relative="1" as="geometry" />
        </mxCell>
        <mxCell id="lQfmFTRjcM8leJoIF2UN-32" style="edgeStyle=orthogonalEdgeStyle;rounded=0;orthogonalLoop=1;jettySize=auto;html=1;entryX=1.012;entryY=0.486;entryDx=0;entryDy=0;entryPerimeter=0;fontSize=14;fontColor=#000000;strokeColor=#9933FF;strokeWidth=4;exitX=0.545;exitY=1.037;exitDx=0;exitDy=0;exitPerimeter=0;" edge="1" parent="1" source="lQfmFTRjcM8leJoIF2UN-35" target="lQfmFTRjcM8leJoIF2UN-43">
          <mxGeometry relative="1" as="geometry">
            <Array as="points">
              <mxPoint x="1623" y="737" />
              <mxPoint x="1261" y="737" />
            </Array>
          </mxGeometry>
        </mxCell>
        <mxCell id="lQfmFTRjcM8leJoIF2UN-33" style="edgeStyle=orthogonalEdgeStyle;rounded=0;orthogonalLoop=1;jettySize=auto;html=1;fontSize=14;fontColor=#000000;strokeColor=#9933FF;strokeWidth=4;" edge="1" parent="1" source="lQfmFTRjcM8leJoIF2UN-35" target="lQfmFTRjcM8leJoIF2UN-41">
          <mxGeometry relative="1" as="geometry" />
        </mxCell>
        <mxCell id="lQfmFTRjcM8leJoIF2UN-34" style="edgeStyle=orthogonalEdgeStyle;rounded=0;orthogonalLoop=1;jettySize=auto;html=1;fontSize=14;fontColor=#000000;strokeColor=#9933FF;strokeWidth=3;" edge="1" parent="1" source="lQfmFTRjcM8leJoIF2UN-35" target="lQfmFTRjcM8leJoIF2UN-57">
          <mxGeometry relative="1" as="geometry">
            <Array as="points">
              <mxPoint x="1320" y="594" />
              <mxPoint x="1320" y="250" />
            </Array>
          </mxGeometry>
        </mxCell>
        <mxCell id="lQfmFTRjcM8leJoIF2UN-76" style="edgeStyle=orthogonalEdgeStyle;rounded=0;orthogonalLoop=1;jettySize=auto;html=1;strokeColor=#9933FF;strokeWidth=4;" edge="1" parent="1" source="lQfmFTRjcM8leJoIF2UN-35" target="lQfmFTRjcM8leJoIF2UN-71">
          <mxGeometry relative="1" as="geometry">
            <Array as="points">
              <mxPoint x="1320" y="594" />
              <mxPoint x="1320" y="79" />
            </Array>
          </mxGeometry>
        </mxCell>
        <mxCell id="lQfmFTRjcM8leJoIF2UN-35" value="&lt;font style=&quot;font-size: 14px&quot;&gt;&lt;b&gt;Eureka Service&lt;/b&gt;&lt;/font&gt;" style="aspect=fixed;html=1;points=[];align=center;image;fontSize=12;image=img/lib/azure2/app_services/API_Management_Services.svg;fontColor=#000000;" vertex="1" parent="1">
          <mxGeometry x="1556" y="537.39" width="122.5" height="113.07" as="geometry" />
        </mxCell>
        <mxCell id="lQfmFTRjcM8leJoIF2UN-36" style="edgeStyle=orthogonalEdgeStyle;rounded=0;orthogonalLoop=1;jettySize=auto;html=1;fontSize=14;fontColor=#000000;" edge="1" parent="1" source="lQfmFTRjcM8leJoIF2UN-37" target="lQfmFTRjcM8leJoIF2UN-42">
          <mxGeometry relative="1" as="geometry" />
        </mxCell>
        <mxCell id="lQfmFTRjcM8leJoIF2UN-37" value="&lt;font style=&quot;font-size: 14px&quot;&gt;&lt;b&gt;Client&lt;/b&gt;&lt;/font&gt;" style="aspect=fixed;html=1;points=[];align=center;image;fontSize=12;image=img/lib/azure2/ai_machine_learning/Cognitive_Services.svg;fontColor=#000000;" vertex="1" parent="1">
          <mxGeometry x="1142" y="458" width="109.17" height="77.06" as="geometry" />
        </mxCell>
        <mxCell id="lQfmFTRjcM8leJoIF2UN-38" value="Microservicios" style="ellipse;whiteSpace=wrap;html=1;align=center;newEdgeStyle={&quot;edgeStyle&quot;:&quot;entityRelationEdgeStyle&quot;,&quot;startArrow&quot;:&quot;none&quot;,&quot;endArrow&quot;:&quot;none&quot;,&quot;segment&quot;:10,&quot;curved&quot;:1};treeFolding=1;treeMoving=1;fontSize=14;fillColor=#FFFFFF;fontStyle=1" vertex="1" parent="1">
          <mxGeometry x="1660" y="957" width="110" height="50" as="geometry" />
        </mxCell>
        <mxCell id="lQfmFTRjcM8leJoIF2UN-39" style="edgeStyle=orthogonalEdgeStyle;rounded=0;orthogonalLoop=1;jettySize=auto;html=1;fontSize=14;fontColor=#000000;" edge="1" parent="1" source="lQfmFTRjcM8leJoIF2UN-40" target="lQfmFTRjcM8leJoIF2UN-43">
          <mxGeometry relative="1" as="geometry" />
        </mxCell>
        <mxCell id="lQfmFTRjcM8leJoIF2UN-40" value="&lt;font style=&quot;font-size: 14px&quot;&gt;&lt;b&gt;RepositoryGit&lt;/b&gt;&lt;/font&gt;" style="verticalLabelPosition=bottom;html=1;verticalAlign=top;align=center;strokeColor=none;fillColor=#00BEF2;shape=mxgraph.azure.git_repository;labelBackgroundColor=default;" vertex="1" parent="1">
          <mxGeometry x="1171.5900000000001" y="937" width="50" height="50" as="geometry" />
        </mxCell>
        <mxCell id="lQfmFTRjcM8leJoIF2UN-41" value="&lt;font style=&quot;font-size: 14px&quot;&gt;&lt;b&gt;ConfigServer&lt;/b&gt;&lt;/font&gt;" style="aspect=fixed;html=1;points=[];align=center;image;fontSize=12;image=img/lib/azure2/app_services/API_Management_Services.svg;fontColor=#000000;" vertex="1" parent="1">
          <mxGeometry x="1556" y="347" width="122.5" height="113.07" as="geometry" />
        </mxCell>
        <mxCell id="lQfmFTRjcM8leJoIF2UN-42" value="&lt;b&gt;&lt;font style=&quot;font-size: 14px&quot;&gt;Product&lt;/font&gt;&lt;/b&gt;" style="aspect=fixed;html=1;points=[];align=center;image;fontSize=12;image=img/lib/azure2/ai_machine_learning/Cognitive_Services.svg;fontColor=#000000;" vertex="1" parent="1">
          <mxGeometry x="1149.99" y="329.47" width="109.17" height="77.06" as="geometry" />
        </mxCell>
        <mxCell id="lQfmFTRjcM8leJoIF2UN-43" value="&lt;font style=&quot;font-size: 14px&quot;&gt;&lt;b&gt;Movements&lt;/b&gt;&lt;/font&gt;" style="aspect=fixed;html=1;points=[];align=center;image;fontSize=12;image=img/lib/azure2/ai_machine_learning/Cognitive_Services.svg;fontColor=#000000;" vertex="1" parent="1">
          <mxGeometry x="1151.41" y="788" width="107.75" height="76.06" as="geometry" />
        </mxCell>
        <mxCell id="lQfmFTRjcM8leJoIF2UN-44" value="&lt;b&gt;API GATEWAY&lt;/b&gt;" style="outlineConnect=0;dashed=0;verticalLabelPosition=bottom;verticalAlign=top;align=center;html=1;shape=mxgraph.aws3.internet_gateway;fillColor=#F58534;gradientColor=none;labelBackgroundColor=default;fontSize=20;fontColor=#000000;" vertex="1" parent="1">
          <mxGeometry x="799" y="612" width="200" height="170" as="geometry" />
        </mxCell>
        <mxCell id="lQfmFTRjcM8leJoIF2UN-45" style="edgeStyle=orthogonalEdgeStyle;rounded=0;orthogonalLoop=1;jettySize=auto;html=1;fontSize=15;fontColor=#0000CC;strokeColor=#0000CC;strokeWidth=4;" edge="1" parent="1" source="lQfmFTRjcM8leJoIF2UN-53" target="lQfmFTRjcM8leJoIF2UN-44">
          <mxGeometry relative="1" as="geometry" />
        </mxCell>
        <mxCell id="lQfmFTRjcM8leJoIF2UN-46" style="edgeStyle=orthogonalEdgeStyle;rounded=0;orthogonalLoop=1;jettySize=auto;html=1;fontSize=15;fontColor=#0000CC;strokeColor=#0000CC;strokeWidth=4;" edge="1" parent="1" source="lQfmFTRjcM8leJoIF2UN-53" target="lQfmFTRjcM8leJoIF2UN-42">
          <mxGeometry relative="1" as="geometry" />
        </mxCell>
        <mxCell id="lQfmFTRjcM8leJoIF2UN-47" style="edgeStyle=orthogonalEdgeStyle;rounded=0;orthogonalLoop=1;jettySize=auto;html=1;fontSize=15;fontColor=#0000CC;strokeColor=#0000CC;strokeWidth=4;" edge="1" parent="1" source="lQfmFTRjcM8leJoIF2UN-53" target="lQfmFTRjcM8leJoIF2UN-37">
          <mxGeometry relative="1" as="geometry">
            <Array as="points">
              <mxPoint x="897" y="507" />
            </Array>
          </mxGeometry>
        </mxCell>
        <mxCell id="lQfmFTRjcM8leJoIF2UN-48" style="edgeStyle=orthogonalEdgeStyle;rounded=0;orthogonalLoop=1;jettySize=auto;html=1;fontSize=15;fontColor=#0000CC;strokeColor=#0000CC;strokeWidth=4;" edge="1" parent="1" source="lQfmFTRjcM8leJoIF2UN-53" target="lQfmFTRjcM8leJoIF2UN-13">
          <mxGeometry relative="1" as="geometry">
            <Array as="points">
              <mxPoint x="1030" y="335" />
              <mxPoint x="1030" y="653" />
            </Array>
          </mxGeometry>
        </mxCell>
        <mxCell id="lQfmFTRjcM8leJoIF2UN-49" style="edgeStyle=orthogonalEdgeStyle;rounded=0;orthogonalLoop=1;jettySize=auto;html=1;fontSize=15;fontColor=#0000CC;strokeColor=#0000CC;strokeWidth=4;" edge="1" parent="1" source="lQfmFTRjcM8leJoIF2UN-53" target="lQfmFTRjcM8leJoIF2UN-43">
          <mxGeometry relative="1" as="geometry">
            <Array as="points">
              <mxPoint x="1030" y="335" />
              <mxPoint x="1030" y="826" />
            </Array>
          </mxGeometry>
        </mxCell>
        <mxCell id="lQfmFTRjcM8leJoIF2UN-50" style="edgeStyle=orthogonalEdgeStyle;rounded=0;orthogonalLoop=1;jettySize=auto;html=1;fontSize=15;fontColor=#0000CC;strokeColor=#0000CC;strokeWidth=4;entryX=0.627;entryY=-0.014;entryDx=0;entryDy=0;entryPerimeter=0;" edge="1" parent="1" source="lQfmFTRjcM8leJoIF2UN-53" target="lQfmFTRjcM8leJoIF2UN-41">
          <mxGeometry relative="1" as="geometry">
            <Array as="points">
              <mxPoint x="897" y="10" />
              <mxPoint x="1633" y="10" />
            </Array>
          </mxGeometry>
        </mxCell>
        <mxCell id="lQfmFTRjcM8leJoIF2UN-51" style="edgeStyle=orthogonalEdgeStyle;rounded=0;orthogonalLoop=1;jettySize=auto;html=1;fontSize=15;fontColor=#0000CC;strokeColor=#0000CC;strokeWidth=4;" edge="1" parent="1" source="lQfmFTRjcM8leJoIF2UN-53" target="lQfmFTRjcM8leJoIF2UN-35">
          <mxGeometry relative="1" as="geometry">
            <Array as="points">
              <mxPoint x="897" y="10" />
              <mxPoint x="1720" y="10" />
              <mxPoint x="1720" y="594" />
            </Array>
          </mxGeometry>
        </mxCell>
        <mxCell id="lQfmFTRjcM8leJoIF2UN-52" style="edgeStyle=orthogonalEdgeStyle;rounded=0;orthogonalLoop=1;jettySize=auto;html=1;fontSize=14;fontColor=#000000;strokeColor=#0000CC;strokeWidth=3;" edge="1" parent="1" source="lQfmFTRjcM8leJoIF2UN-53" target="lQfmFTRjcM8leJoIF2UN-57">
          <mxGeometry relative="1" as="geometry" />
        </mxCell>
        <mxCell id="lQfmFTRjcM8leJoIF2UN-74" style="edgeStyle=orthogonalEdgeStyle;rounded=0;orthogonalLoop=1;jettySize=auto;html=1;strokeWidth=4;strokeColor=#0000CC;" edge="1" parent="1" source="lQfmFTRjcM8leJoIF2UN-53" target="lQfmFTRjcM8leJoIF2UN-71">
          <mxGeometry relative="1" as="geometry">
            <Array as="points">
              <mxPoint x="1070" y="335" />
              <mxPoint x="1070" y="79" />
            </Array>
          </mxGeometry>
        </mxCell>
        <mxCell id="lQfmFTRjcM8leJoIF2UN-75" value="Text" style="edgeLabel;html=1;align=center;verticalAlign=middle;resizable=0;points=[];" vertex="1" connectable="0" parent="lQfmFTRjcM8leJoIF2UN-74">
          <mxGeometry x="0.1424" y="-2" relative="1" as="geometry">
            <mxPoint y="1" as="offset" />
          </mxGeometry>
        </mxCell>
        <mxCell id="lQfmFTRjcM8leJoIF2UN-53" value="" style="sketch=0;aspect=fixed;html=1;points=[];align=center;image;fontSize=15;image=img/lib/mscae/Docker.svg;labelBackgroundColor=default;fontColor=#000000;fillColor=#C9F57D;labelBorderColor=default;" vertex="1" parent="1">
          <mxGeometry x="796" y="251.51" width="202.48" height="166.03" as="geometry" />
        </mxCell>
        <mxCell id="lQfmFTRjcM8leJoIF2UN-54" style="edgeStyle=orthogonalEdgeStyle;rounded=0;orthogonalLoop=1;jettySize=auto;html=1;fontSize=14;fontColor=#000000;strokeColor=#0000CC;strokeWidth=4;" edge="1" parent="1" source="lQfmFTRjcM8leJoIF2UN-55" target="lQfmFTRjcM8leJoIF2UN-35">
          <mxGeometry relative="1" as="geometry">
            <Array as="points">
              <mxPoint x="1683" y="711" />
              <mxPoint x="1650" y="711" />
            </Array>
          </mxGeometry>
        </mxCell>
        <mxCell id="lQfmFTRjcM8leJoIF2UN-55" value="&lt;font style=&quot;font-size: 14px&quot; color=&quot;#000000&quot;&gt;&lt;b&gt;CircuitBreaker&lt;/b&gt;&lt;/font&gt;" style="sketch=0;aspect=fixed;html=1;points=[];align=center;image;fontSize=12;image=img/lib/mscae/Cloud_Services_Classic.svg;labelBackgroundColor=default;labelBorderColor=default;fontColor=#0000CC;fillColor=#C9F57D;" vertex="1" parent="1">
          <mxGeometry x="1617.05" y="771.03" width="130.95" height="110" as="geometry" />
        </mxCell>
        <mxCell id="lQfmFTRjcM8leJoIF2UN-56" style="edgeStyle=orthogonalEdgeStyle;rounded=0;orthogonalLoop=1;jettySize=auto;html=1;entryX=0;entryY=0.5;entryDx=0;entryDy=0;fontSize=14;fontColor=#000000;strokeColor=#FF3A24;strokeWidth=2;" edge="1" parent="1" source="lQfmFTRjcM8leJoIF2UN-57" target="lQfmFTRjcM8leJoIF2UN-58">
          <mxGeometry relative="1" as="geometry">
            <Array as="points">
              <mxPoint x="1350" y="220" />
              <mxPoint x="1350" y="223" />
            </Array>
          </mxGeometry>
        </mxCell>
        <mxCell id="lQfmFTRjcM8leJoIF2UN-57" value="&lt;b&gt;&lt;font style=&quot;font-size: 14px&quot;&gt;Account&lt;/font&gt;&lt;/b&gt;" style="aspect=fixed;html=1;points=[];align=center;image;fontSize=12;image=img/lib/azure2/ai_machine_learning/Cognitive_Services.svg;fontColor=#000000;" vertex="1" parent="1">
          <mxGeometry x="1149.99" y="190.00000000000003" width="109.17" height="77.06" as="geometry" />
        </mxCell>
        <mxCell id="lQfmFTRjcM8leJoIF2UN-58" value="&lt;font color=&quot;#000000&quot; style=&quot;font-size: 14px&quot;&gt;&lt;b&gt;Account&lt;/b&gt;&lt;/font&gt;" style="image;html=1;image=img/lib/clip_art/computers/Database_128x128.png;fontColor=#FF142C;" vertex="1" parent="1">
          <mxGeometry x="1410" y="182.53" width="80" height="80" as="geometry" />
        </mxCell>
        <mxCell id="lQfmFTRjcM8leJoIF2UN-68" style="edgeStyle=orthogonalEdgeStyle;rounded=0;orthogonalLoop=1;jettySize=auto;html=1;entryX=0.5;entryY=1;entryDx=0;entryDy=0;entryPerimeter=0;strokeWidth=5;" edge="1" parent="1" source="lQfmFTRjcM8leJoIF2UN-64" target="lQfmFTRjcM8leJoIF2UN-65">
          <mxGeometry relative="1" as="geometry" />
        </mxCell>
        <mxCell id="lQfmFTRjcM8leJoIF2UN-69" style="edgeStyle=orthogonalEdgeStyle;rounded=0;orthogonalLoop=1;jettySize=auto;html=1;strokeWidth=5;" edge="1" parent="1" source="lQfmFTRjcM8leJoIF2UN-64" target="lQfmFTRjcM8leJoIF2UN-2">
          <mxGeometry relative="1" as="geometry" />
        </mxCell>
        <mxCell id="lQfmFTRjcM8leJoIF2UN-70" style="edgeStyle=orthogonalEdgeStyle;rounded=0;orthogonalLoop=1;jettySize=auto;html=1;strokeWidth=5;" edge="1" parent="1" source="lQfmFTRjcM8leJoIF2UN-64">
          <mxGeometry relative="1" as="geometry">
            <mxPoint x="1210" as="targetPoint" />
            <Array as="points">
              <mxPoint x="2095" y="-90" />
              <mxPoint x="1210" y="-90" />
            </Array>
          </mxGeometry>
        </mxCell>
        <mxCell id="lQfmFTRjcM8leJoIF2UN-64" value="" style="aspect=fixed;html=1;points=[];align=center;image;fontSize=12;image=img/lib/azure2/databases/Azure_Database_Migration_Services.svg;fillColor=#D4FCFF;" vertex="1" parent="1">
          <mxGeometry x="1960" y="497.54" width="270.34" height="291.46" as="geometry" />
        </mxCell>
        <mxCell id="lQfmFTRjcM8leJoIF2UN-65" value="" style="verticalLabelPosition=bottom;html=1;verticalAlign=top;align=center;strokeColor=none;fillColor=#00BEF2;shape=mxgraph.azure.azure_subscription;" vertex="1" parent="1">
          <mxGeometry x="1930" y="881.03" width="280" height="194" as="geometry" />
        </mxCell>
        <mxCell id="lQfmFTRjcM8leJoIF2UN-71" value="&lt;b&gt;&lt;font style=&quot;font-size: 14px&quot;&gt;Payments&lt;/font&gt;&lt;/b&gt;" style="aspect=fixed;html=1;points=[];align=center;image;fontSize=12;image=img/lib/azure2/ai_machine_learning/Cognitive_Services.svg;fontColor=#000000;" vertex="1" parent="1">
          <mxGeometry x="1149.99" y="40.00000000000003" width="109.17" height="77.06" as="geometry" />
        </mxCell>
        <mxCell id="lQfmFTRjcM8leJoIF2UN-72" value="&lt;font color=&quot;#000000&quot;&gt;&lt;span style=&quot;font-size: 14px&quot;&gt;&lt;b&gt;Payments&lt;/b&gt;&lt;/span&gt;&lt;/font&gt;" style="image;html=1;image=img/lib/clip_art/computers/Database_128x128.png;fontColor=#FF142C;" vertex="1" parent="1">
          <mxGeometry x="1412.5" y="40" width="80" height="80" as="geometry" />
        </mxCell>
        <mxCell id="lQfmFTRjcM8leJoIF2UN-73" style="edgeStyle=orthogonalEdgeStyle;rounded=0;orthogonalLoop=1;jettySize=auto;html=1;entryX=0;entryY=0.75;entryDx=0;entryDy=0;fontSize=14;fontColor=#000000;strokeColor=#FF3A24;strokeWidth=2;" edge="1" parent="1" source="lQfmFTRjcM8leJoIF2UN-71" target="lQfmFTRjcM8leJoIF2UN-72">
          <mxGeometry relative="1" as="geometry">
            <Array as="points">
              <mxPoint x="1413" y="90" />
            </Array>
            <mxPoint x="1269.1599999999999" y="230.11111111111086" as="sourcePoint" />
            <mxPoint x="1420" y="232.5300000000002" as="targetPoint" />
          </mxGeometry>
        </mxCell>
      </root>
    </mxGraphModel>
  </diagram>
</mxfile>
